<?xml version="1.0" encoding="UTF-8" standalone="no"?>
<!-- Created with Inkscape (http://www.inkscape.org/) -->

<svg
   width="1023.9999"
   height="1023.9999"
   viewBox="0 0 270.93333 270.93333"
   version="1.1"
   id="svg3299"
   xml:space="preserve"
   xmlns="http://www.w3.org/2000/svg"
   xmlns:svg="http://www.w3.org/2000/svg"><defs
     id="defs3296" /><circle
     style="display:inline;fill:var(--star, #333);fill-opacity:1;stroke:var(--star, #333);stroke-width:0;stroke-opacity:0.0176768"
     id="path5322"
     cy="135.46666"
     cx="135.46666"
     r="135.46666" /><path
     id="rect3536"
     style="display:inline;fill:var(--circle, #ccc);fill-opacity:1;stroke:var(--circle, #ccc);stroke-width:0;stroke-opacity:0.0176768"
     d="M 136.29033,-1.1874829 C 112.16191,-1.3479653 87.652905,4.632686 68.23537,17.496998 c 4.102909,5.063652 10.770996,8.653975 15.962396,12.565114 11.820053,8.90493 23.788874,17.615067 35.608344,26.520231 3.83636,2.890676 12.83614,12.488199 17.80417,12.00838 5.69109,-0.550142 14.53521,-10.312268 19.03237,-13.827083 15.83692,-12.375584 32.17043,-24.118587 47.88718,-36.650087 V 17.496998 C 196.79492,11.965109 187.0778,8.5670226 178.13037,5.5731006 165.10814,1.2158514 150.76748,-1.0911934 136.29033,-1.1874829 Z M 51.044777,29.832283 C 41.138382,34.390815 32.622613,46.524558 26.259794,55.118879 3.0936821,86.408153 -5.9849257,129.48214 3.7716872,167.36745 22.662996,156.55654 40.307359,141.28035 57.798299,128.28368 c 4.475552,-3.32553 9.031595,-6.54138 13.506521,-9.86802 1.690169,-1.25629 4.426307,-2.60986 5.097333,-4.76295 0.654433,-2.09943 -0.78791,-4.75484 -1.398143,-6.72647 C 73.288076,101.37793 71.626155,95.807525 69.866016,90.273495 63.53515,70.368708 55.73093,50.18113 51.044777,29.832283 Z m 171.289223,0 c -3.15504,5.042931 -4.09909,12.222374 -5.93663,17.885322 -4.65307,14.34175 -8.85347,28.832439 -13.50653,43.172969 -1.61956,4.992541 -7.54728,16.400436 -5.91421,21.478656 1.66562,5.18255 13.64483,10.84786 17.99028,13.9378 12.11233,8.6128 24.15064,17.32951 36.22243,25.99918 5.73099,4.11544 11.84311,10.05362 18.41827,12.59449 1.39421,-7.22212 2.23171,-14.70709 2.51635,-22.30562 V 131.17807 C 270.71575,92.174529 254.67934,52.050885 222.334,29.832283 Z M 87.267217,62.51963 90.132316,74.23836 97.704289,98.908403 116.73665,85.339486 v -1.233109 z m 98.844343,0.617079 c -8.80994,3.943458 -22.15476,14.074893 -28.24124,21.586223 4.8672,4.230863 11.5059,10.694119 17.80417,12.335284 z m -48.50128,37.004801 c -8.28684,4.74219 -15.70759,11.44608 -23.3295,17.19112 -2.32624,1.7539 -7.39515,4.36563 -7.90717,7.50306 -0.92216,5.65302 4.53245,16.07783 6.27652,21.56262 1.19411,3.75464 2.32525,13.0718 5.6275,15.40126 2.29246,1.61701 7.43655,0.63387 10.12377,0.63387 h 27.01305 l 8.80642,-28.98698 2.6571,-10.99407 -8.39355,-6.98517 z m 50.95716,37.62188 -6.75353,24.0535 H 222.334 v -0.61656 c -10.33616,-7.43729 -21.88401,-18.91121 -33.76656,-23.43694 z m -103.756097,1.23364 -16.575973,11.45689 -16.576495,12.5966 h 39.90599 z m 178.042747,46.87335 -89.02138,0.61654 -25.14468,85.63704 h 1.47322 c 37.83845,-2.19542 75.10688,-25.58152 96.73044,-56.03298 6.09888,-8.58814 14.08744,-19.62259 15.9624,-30.2206 z m -167.372652,1.10821 c -1.176129,-0.0155 -2.385255,0.11635 -3.302474,0.12752 -5.522325,0.066 -11.020412,0.61445 -16.576494,0.61445 -21.710494,0 -43.407197,0.61655 -65.077782,0.61655 17.833149,46.17649 63.799023,79.54045 112.649062,83.78685 h 0.91489 c -3.07977,-20.90972 -12.20126,-42.60444 -18.38804,-62.81717 -1.56861,-5.12461 -3.07487,-10.27305 -4.5729,-15.41859 -0.52242,-1.7934 -0.95006,-4.9748 -2.541361,-6.15032 -0.785825,-0.58036 -1.928758,-0.74369 -3.104901,-0.75929 z m 29.849992,0.12542 11.05117,34.53805 c 5.51796,-9.0735 8.65689,-24.14347 11.05065,-34.53805 z M -1.1906266,210.44754 v 8.1637 c 1.09752398,-1.40858 2.00847717,-2.40643 2.844768,-3.08434 -0.97631136,-1.67757 -1.92923722,-3.3684 -2.844768,-5.07936 z m 2.13787666,21.0022 c -0.0643355,0.007 -0.15647599,0.0565 -0.32008201,0.13748 0.22837058,0.0946 0.45463195,0.21267 0.68030465,0.34055 -0.2020703,-0.33913 -0.2411159,-0.49162 -0.36022264,-0.47803 z M 272.0932,258.38398 c -0.25709,0.0242 -0.50473,0.0629 -0.74547,0.11282 0.2497,-0.0323 0.49848,-0.0679 0.74547,-0.11282 z m -273.2838266,8.25658 v 3.5503 c 0.408923,-1.02122 0.83222462,-2.03697 1.26885924,-3.04761 -0.42177606,-0.17063 -0.84494116,-0.33726 -1.26885924,-0.50269 z m 32.1468686,4.08342 c -0.119896,0.46146 -0.287941,0.92707 -0.495762,1.39998 h 2.169155 c -0.556093,-0.46868 -1.113512,-0.93578 -1.673393,-1.39998 z" /></svg>
